<?xml version="1.0" encoding="UTF-8" standalone="no"?>
<!-- Generator: Adobe Illustrator 27.5.0, SVG Export Plug-In . SVG Version: 6.00 Build 0)  -->

<svg
   xmlns:dc="http://purl.org/dc/elements/1.1/"
   xmlns:cc="http://creativecommons.org/ns#"
   xmlns:rdf="http://www.w3.org/1999/02/22-rdf-syntax-ns#"
   xmlns:svg="http://www.w3.org/2000/svg"
   xmlns="http://www.w3.org/2000/svg"
   xmlns:sodipodi="http://sodipodi.sourceforge.net/DTD/sodipodi-0.dtd"
   xmlns:inkscape="http://www.inkscape.org/namespaces/inkscape"
   version="1.1"
   x="0px"
   y="0px"
   viewBox="0 0 500 500"
   style="enable-background:new 0 0 500 500;"
   xml:space="preserve"
   id="svg964"
   sodipodi:docname="new-imgsvg.svg"
   inkscape:version="0.92.5 (2060ec1f9f, 2020-04-08)"><metadata
   id="metadata970"><rdf:RDF><cc:Work
       rdf:about=""><dc:format>image/svg+xml</dc:format><dc:type
         rdf:resource="http://purl.org/dc/dcmitype/StillImage" /><dc:title></dc:title></cc:Work></rdf:RDF></metadata><defs
   id="defs968" /><sodipodi:namedview
   pagecolor="#ffffff"
   bordercolor="#666666"
   borderopacity="1"
   objecttolerance="10"
   gridtolerance="10"
   guidetolerance="10"
   inkscape:pageopacity="0"
   inkscape:pageshadow="2"
   inkscape:window-width="2560"
   inkscape:window-height="1346"
   id="namedview966"
   showgrid="false"
   inkscape:zoom="1.5881618"
   inkscape:cx="349.873"
   inkscape:cy="235.89166"
   inkscape:window-x="-11"
   inkscape:window-y="-11"
   inkscape:window-maximized="1"
   inkscape:current-layer="g888" />

<g
   id="OBJECTS"
   transform="translate(20.610491,-2.3397863)">
	
	<g
   id="g890"
   transform="translate(-87.522568,35.26089)"
   inkscape:label="g890">
		<g
   id="g888">
			
			
			<g
   id="g874"
   transform="translate(48.496335,-38.16016)"
   inkscape:label="g874">
				<g
   id="g850">
					<path
   style="fill:none"
   d="m 303.866,118.715 c -5.84,2.294 -9.122,8.687 -7.581,14.77 1.868,7.376 9.745,11.419 16.827,8.637 5.841,-2.294 9.122,-8.687 7.582,-14.77 -1.868,-7.376 -9.745,-11.419 -16.828,-8.637 z"
   id="path846"
   inkscape:connector-curvature="0" />
					<path
   style="fill:#d74114"
   d="m 329.646,91.54 -235.74,75.817 75.817,235.74 167.94,-54.012 28.153,-145.076 z m -16.534,50.583 c -7.082,2.782 -14.959,-1.261 -16.827,-8.637 -1.541,-6.083 1.741,-12.476 7.581,-14.77 7.082,-2.782 14.959,1.261 16.827,8.637 1.541,6.083 -1.741,12.476 -7.581,14.77 z"
   id="path848"
   inkscape:connector-curvature="0" />
				</g>
				
					
				<g
   id="g856"
   transform="matrix(0.71728987,0,0,0.71728987,27.831143,66.15727)">
					
						<text
   transform="matrix(0.8883,-0.2857,0.3062,0.952,144.3343,272.6669)"
   style="font-size:108.25450134px;font-family:BuiltTitlingRg-Bold;fill:#f4f4e9"
   id="text854">FLASH</text>

				</g>
				
					
				
					<text
   transform="matrix(0.92148131,-0.28975311,0.3105442,0.98756083,0,0)"
   style="font-size:75.04131317px;font-family:BuiltTitlingRg-Regular;fill:#f4da33;stroke-width:0.69319344"
   id="text860"
   x="53.362694"
   y="383.8497">SALE </text>

				
				
				
				
			</g>
			
				
			
		</g>
	</g>
	
</g>

</svg>