<svg width="60" height="60" viewBox="0 0 16 16" xmlns="http://www.w3.org/2000/svg">
    <path fill-rule="evenodd" clip-rule="evenodd" d="M8.463 4.72L11.808 1c.42.254 1.096.573.882 1.178l-1.271 3.296c-.145.33.115.69.52.72 1.036.076 2.075.193 3.11.257 1.248.143 1.193 2.291.217 2.393.382 0 .918 1.929-.563 2.195.665.539.377 1.73-.471 1.878.458.666-.386 1.645-1.215 1.645-2.332.39-4.782.05-7.017-.644-.657-.177-1.346-.114-2.018-.15V7.951c1.59-1 3.256-1.867 4.48-3.23zm-5.46 2.225H0V15h3.004V6.945z" fill="#000"></path>
</svg>